<?xml version="1.0" encoding="UTF-8"?>
<svg id="Layer_1" data-name="Layer 1" xmlns="http://www.w3.org/2000/svg" viewBox="0 0 512 512">
  <defs>
    <style>
      .cls-1 {
        fill: #fff;
      }
    </style>
  </defs>
  <rect class="cls-1" width="512" height="512" rx="144.95" ry="144.95"/>
  <path d="M182.8,200.35c-24.66,0-25.61,1.89-25.61,25.47,0,95.26,55.97,176.37,157.47,176.37,31.3,0,57.86-9.43,87.27-46.21,9.49-2.83,16.13,2.83,17.08,11.32-31.3,64.13-99.6,87.71-148.93,87.71-61.66,0-110.04-26.41-137.55-62.25-28.46-36.78-39.84-81.11-39.84-122.61,0-116.01,76.84-213.15,190.67-213.15,81.58,0,134.7,55.65,134.7,112.24,0,13.2-1.9,20.75-3.79,24.52-2.85,5.66-16.13,6.6-55.97,6.6h-175.49ZM241.61,172.06c70.2,0,91.07-3.77,98.65-9.43,2.85-1.89,5.69-5.66,5.69-17.92,0-26.41-18.02-59.42-73.04-59.42s-104.35,50.93-105.3,82.06c0,1.89,0,4.72,6.64,4.72h67.35Z"/>
</svg>